<svg height="512pt" viewBox="0 0 512 512" width="512pt" xmlns="http://www.w3.org/2000/svg" xmlns:xlink="http://www.w3.org/1999/xlink"><linearGradient id="a" gradientUnits="userSpaceOnUse" x1="0" x2="512" y1="256" y2="256"><stop offset="0" stop-color="#00f2fe"/><stop offset=".0208" stop-color="#03effe"/><stop offset=".2931" stop-color="#24d2fe"/><stop offset=".5538" stop-color="#3cbdfe"/><stop offset=".7956" stop-color="#4ab0fe"/><stop offset="1" stop-color="#4facfe"/></linearGradient><path d="m472 332v-212c0-22.054688-17.945312-40-40-40h-26v20c0 11.046875-8.953125 20-20 20s-20-8.953125-20-20v-20h-91v20c0 11.046875-8.953125 20-20 20s-20-8.953125-20-20v-20h-90v20c0 11.046875-8.953125 20-20 20s-20-8.953125-20-20v-20h-25c-22.054688 0-40 17.945312-40 40v312c0 22.054688 17.945312 40 40 40h352c22.054688 0 40-17.945312 40-40 0-11.046875 8.953125-20 20-20s20 8.953125 20 20c0 44.113281-35.886719 80-80 80h-352c-44.113281 0-80-35.886719-80-80v-312c0-44.113281 35.886719-80 80-80h25v-20c0-11.046875 8.953125-20 20-20s20 8.953125 20 20v20h90v-20c0-11.046875 8.953125-20 20-20s20 8.953125 20 20v20h91v-20c0-11.046875 8.953125-20 20-20s20 8.953125 20 20v20h26c44.113281 0 80 35.886719 80 80v212c0 11.046875-8.953125 20-20 20s-20-8.953125-20-20zm-327-122c0-11.046875-8.953125-20-20-20s-20 8.953125-20 20 8.953125 20 20 20 20-8.953125 20-20zm174 0c0-11.046875-8.953125-20-20-20s-20 8.953125-20 20 8.953125 20 20 20 20-8.953125 20-20zm67 20c11.046875 0 20-8.953125 20-20s-8.953125-20-20-20-20 8.953125-20 20 8.953125 20 20 20zm-241 67c0-11.046875-8.953125-20-20-20s-20 8.953125-20 20 8.953125 20 20 20 20-8.953125 20-20zm-20 67c-11.046875 0-20 8.953125-20 20s8.953125 20 20 20 20-8.953125 20-20-8.953125-20-20-20zm107-154c0-11.046875-8.953125-20-20-20s-20 8.953125-20 20 8.953125 20 20 20 20-8.953125 20-20zm0 87c0-11.046875-8.953125-20-20-20s-20 8.953125-20 20 8.953125 20 20 20 20-8.953125 20-20zm-20 67c-11.046875 0-20 8.953125-20 20s8.953125 20 20 20 20-8.953125 20-20-8.953125-20-20-20zm168.046875-11.238281 22.859375-16.863281c7.753906-5.609376 3.769531-18.898438-5.816406-18.898438h-28.363282c-4.289062 0-8.085937-1.671875-9.414062-5.734375l-8.902344-27.457031c-1.480468-4.539063-5.445312-6.808594-9.410156-6.808594s-7.929688 2.269531-9.410156 6.808594l-8.90625 27.460937c-1.324219 4.058594-5.121094 5.730469-9.410156 5.730469h-28.324219c-9.585938 0-13.570313 13.289062-5.816407 18.898438l22.820313 16.863281c3.46875 2.507812 4.921875 6.957031 3.597656 11.015625l-8.90625 27.28125c-2.960937 9.078125 7.472657 16.625 15.230469 11.015625l23.308594-16.867188c1.734375-1.253906 3.777344-1.882812 5.816406-1.882812s4.082031.628906 5.816406 1.882812l23.308594 16.867188c7.757812 5.609375 18.191406-1.9375 15.230469-11.015625l-8.90625-27.28125c-1.324219-4.0625.128906-8.507813 3.597656-11.015625zm0 0" fill="url(#a)"/></svg>